<svg width="360" height="220" viewBox="0 0 360 220" fill="none" xmlns="http://www.w3.org/2000/svg">
  <rect width="360" height="220" rx="18" fill="#F6F5F2"/>
  <rect x="24" y="22" width="312" height="76" rx="8" fill="#0C1118"/>
  <path d="M58 74C103 39 125 36 162 65C200 94 235 43 302 48" stroke="#6FD7F0" stroke-width="6" stroke-linecap="round" opacity=".55"/>
  <rect x="127" y="46" width="106" height="9" rx="4.5" fill="#D6C6A8"/>
  <rect x="139" y="64" width="82" height="7" rx="3.5" fill="#F1EEE7"/>
  <rect x="112" y="116" width="44" height="6" rx="3" fill="#2F3438"/>
  <rect x="158" y="116" width="54" height="6" rx="3" fill="#8E8B85"/>
  <rect x="214" y="116" width="46" height="6" rx="3" fill="#8E8B85"/>
  <path d="M78 132H282" stroke="#CFC9BE" stroke-width="2"/>
  <rect x="40" y="150" width="72" height="6" rx="3" fill="#2A2927"/>
  <rect x="40" y="168" width="58" height="5" rx="2.5" fill="#8E8B85"/>
  <rect x="134" y="148" width="86" height="9" rx="4.5" fill="#4C4741"/>
  <rect x="134" y="166" width="96" height="5" rx="2.5" fill="#8E8B85"/>
  <rect x="244" y="144" width="74" height="46" rx="6" fill="#BFDCEC"/>
</svg>
